<svg width="656" height="612" viewBox="0 0 656 612" fill="none" xmlns="http://www.w3.org/2000/svg">
<rect opacity="0.8" width="531" height="531" transform="matrix(-0.986286 -0.165048 -0.165048 0.986286 655.358 87.6403)" fill="#E67E22"/>
<g clip-path="url(#clip0)">
<path d="M543.023 133.674H477.267V134.927H543.023V133.674Z" fill="white"/>
<path d="M425.913 133.674H217.369V134.927H425.913V133.674Z" fill="white"/>
<path d="M217.369 159.974C231.55 159.974 243.045 148.479 243.045 134.3C243.045 120.121 231.55 108.626 217.369 108.626C203.188 108.626 191.693 120.121 191.693 134.3C191.693 148.479 203.188 159.974 217.369 159.974Z" fill="#E74C3C"/>
<path d="M359.656 134.3C359.656 148.203 348.384 159.474 334.479 159.474C320.575 159.474 309.303 148.203 309.303 134.3C309.303 120.397 320.575 109.126 334.479 109.126C348.384 109.126 359.656 120.397 359.656 134.3Z" fill="white" stroke="white"/>
<path d="M451.587 160.601C446.384 160.601 441.299 159.059 436.974 156.169C432.648 153.279 429.277 149.171 427.286 144.365C425.295 139.56 424.774 134.271 425.789 129.17C426.804 124.068 429.309 119.381 432.988 115.703C436.666 112.025 441.353 109.52 446.455 108.505C451.558 107.491 456.846 108.011 461.652 110.002C466.459 111.993 470.567 115.364 473.457 119.689C476.347 124.014 477.89 129.099 477.89 134.301C477.89 141.276 475.119 147.966 470.186 152.898C465.253 157.83 458.563 160.601 451.587 160.601ZM451.587 109.253C446.632 109.253 441.789 110.722 437.67 113.474C433.55 116.226 430.339 120.138 428.443 124.715C426.547 129.292 426.051 134.328 427.018 139.187C427.984 144.046 430.37 148.509 433.873 152.012C437.377 155.515 441.84 157.901 446.7 158.867C451.559 159.834 456.596 159.338 461.173 157.442C465.75 155.546 469.663 152.336 472.415 148.217C475.168 144.097 476.637 139.255 476.637 134.301C476.637 127.657 473.998 121.286 469.3 116.589C464.602 111.892 458.23 109.253 451.587 109.253Z" fill="white"/>
<path d="M568.697 160.601C563.495 160.601 558.409 159.059 554.084 156.169C549.758 153.279 546.387 149.171 544.396 144.365C542.405 139.56 541.884 134.271 542.899 129.17C543.914 124.068 546.419 119.381 550.098 115.703C553.776 112.025 558.463 109.52 563.565 108.505C568.668 107.491 573.956 108.011 578.763 110.002C583.569 111.993 587.677 115.364 590.567 119.689C593.457 124.014 595 129.099 595 134.301C595 141.276 592.229 147.966 587.296 152.898C582.363 157.83 575.673 160.601 568.697 160.601ZM568.697 109.253C563.742 109.253 558.899 110.722 554.78 113.474C550.66 116.226 547.449 120.138 545.553 124.715C543.657 129.292 543.161 134.328 544.128 139.187C545.095 144.046 547.48 148.509 550.984 152.012C554.487 155.515 558.951 157.901 563.81 158.867C568.669 159.834 573.706 159.338 578.283 157.442C582.861 155.546 586.773 152.336 589.526 148.217C592.278 144.097 593.747 139.255 593.747 134.301C593.747 131.011 593.099 127.754 591.84 124.715C590.582 121.676 588.736 118.915 586.41 116.589C584.084 114.263 581.323 112.418 578.283 111.159C575.244 109.9 571.987 109.253 568.697 109.253Z" fill="white"/>
<path d="M215.392 141.955C214.941 141.955 214.502 141.809 214.142 141.538L214.12 141.522L209.407 137.917C208.966 137.579 208.678 137.08 208.605 136.53C208.532 135.979 208.681 135.422 209.019 134.981C209.357 134.541 209.856 134.252 210.407 134.18C210.958 134.107 211.515 134.256 211.955 134.594L215.008 136.934L222.22 127.525C222.558 127.085 223.057 126.796 223.607 126.724C224.158 126.651 224.714 126.8 225.155 127.137L225.11 127.199L225.156 127.137C225.596 127.476 225.884 127.975 225.957 128.525C226.029 129.075 225.881 129.632 225.543 130.073L217.059 141.135C216.863 141.39 216.61 141.596 216.321 141.737C216.032 141.879 215.714 141.952 215.392 141.951L215.392 141.955Z" fill="white"/>
<path d="M138.821 244.137C138.341 244.356 137.879 244.613 137.44 244.907L93.562 226.181L91.9966 214.624L74.4639 214.516L75.4998 241.025L133.415 256.342C133.537 256.744 133.683 257.138 133.853 257.523C134.69 259.309 136.037 260.808 137.724 261.832C139.411 262.856 141.362 263.358 143.334 263.277C145.305 263.195 147.209 262.533 148.805 261.373C150.401 260.213 151.619 258.607 152.306 256.758C152.992 254.908 153.117 252.897 152.664 250.976C152.212 249.056 151.201 247.312 149.761 245.964C148.32 244.616 146.513 243.723 144.567 243.399C142.621 243.074 140.622 243.331 138.821 244.139L138.821 244.137Z" fill="#FEB8B8"/>
<path d="M68.0878 484.343H80.0818L85.7874 438.086H68.0864L68.0878 484.343Z" fill="#FEB8B8"/>
<path d="M88.6485 480.917H65.5178V495.474H103.212C103.212 491.612 101.678 487.908 98.9468 485.177C96.2155 482.446 92.5111 480.912 88.6485 480.912V480.917Z" fill="black"/>
<path d="M21.443 480.955L33.378 482.129L43.5912 436.654L25.9751 434.923L21.443 480.955Z" fill="#FEB8B8"/>
<path d="M42.2475 479.563L19.2322 477.296L17.8051 491.785L55.3101 495.479C55.6886 491.637 54.5251 487.801 52.0756 484.816C49.6261 481.831 46.0911 479.942 42.2482 479.563H42.2475Z" fill="black"/>
<path d="M64.7494 165.56C51.4793 165.56 40.7218 154.804 40.7218 141.535C40.7218 128.266 51.4793 117.509 64.7494 117.509C78.0195 117.509 88.777 128.266 88.777 141.535C88.777 154.804 78.0195 165.56 64.7494 165.56Z" fill="#FEB8B8"/>
<path d="M82.7623 474.988C83.7933 474.99 84.7919 474.628 85.5821 473.966C86.3723 473.304 86.9034 472.384 87.0818 471.368C93.2855 436.917 113.581 324.247 114.067 321.123C114.078 321.052 114.083 320.979 114.083 320.907V312.505C114.084 312.199 113.988 311.9 113.81 311.651L111.13 307.9C111.002 307.719 110.835 307.57 110.641 307.464C110.447 307.358 110.231 307.298 110.01 307.289C94.7251 306.572 44.6758 304.472 42.258 307.493C39.8297 310.525 40.6926 319.728 40.8886 321.54L40.8788 321.729L18.3915 465.523C18.2155 466.67 18.4983 467.84 19.1788 468.78C19.8593 469.72 20.8826 470.355 22.0273 470.546L36.0716 472.859C37.1177 473.027 38.1892 472.814 39.0915 472.259C39.9937 471.704 40.6667 470.843 40.9879 469.834C45.3317 455.955 59.8971 409.266 64.9454 391.199C64.9726 391.08 65.0437 390.975 65.1444 390.906C65.2452 390.837 65.3683 390.808 65.4892 390.826C65.6101 390.843 65.72 390.906 65.797 391.001C65.874 391.095 65.9125 391.216 65.9049 391.338C65.6527 408.56 65.0433 452.498 64.8286 467.674L64.8064 469.309C64.7971 470.415 65.2033 471.485 65.9447 472.306C66.6861 473.128 67.7087 473.642 68.8104 473.746L82.3531 474.973C82.4892 474.985 82.6257 474.99 82.7623 474.988Z" fill="black"/>
<path d="M79.9984 175.008C84.1914 177.5 86.701 182.08 88.1406 186.748C90.8062 195.377 92.4107 204.299 92.9186 213.316L94.4408 240.312L113.278 311.887C96.9511 325.7 87.5347 322.56 65.5567 311.262C43.5787 299.964 41.0678 315.029 41.0678 315.029L36.6733 254.128L30.3945 187.578C31.8042 185.882 33.3996 184.348 35.151 183.007C40.9545 178.493 47.7067 175.356 54.899 173.831C62.0912 172.306 69.5358 172.433 76.6718 174.202L79.9984 175.008Z" fill="#E6E6E6"/>
<path d="M86.1167 258.592C85.6103 258.781 85.1197 259.01 84.6493 259.277L41.2623 237.561L40.5425 225.797L22.6457 224.563L21.6869 251.379L79.6663 270.553C80.1394 272.585 81.2198 274.424 82.7639 275.827C84.3081 277.229 86.2426 278.129 88.3104 278.405C90.3781 278.681 92.4808 278.321 94.339 277.373C96.1971 276.425 97.7226 274.934 98.7123 273.098C99.7021 271.261 100.109 269.167 99.8797 267.094C99.6501 265.021 98.7947 263.067 97.4272 261.492C96.0597 259.916 94.2449 258.795 92.2243 258.276C90.2038 257.758 88.0732 257.866 86.116 258.588L86.1167 258.592Z" fill="#FEB8B8"/>
<path d="M30.7072 187.879C20.0333 191.645 18.1518 232.459 18.1518 232.459C30.71 225.553 45.7798 236.854 45.7798 236.854C45.7798 236.854 48.9188 226.18 52.6866 212.368C53.8242 208.483 53.9603 204.373 53.0821 200.421C52.204 196.469 50.3401 192.803 47.664 189.765C47.664 189.765 41.3825 184.11 30.7072 187.879Z" fill="#E6E6E6"/>
<path d="M43.2092 147.886C46.203 145.492 50.2869 149.843 50.2869 149.843L52.6818 128.295C52.6818 128.295 67.6494 130.089 77.2312 127.697C86.8129 125.305 88.3081 136.381 88.3081 136.381C88.802 131.908 88.9022 127.4 88.6075 122.909C88.0086 117.521 80.2257 112.133 66.4544 108.54C52.6832 104.948 45.4985 120.515 45.4985 120.515C35.9133 125.301 40.2119 150.284 43.2092 147.886Z" fill="black"/>
<path d="M374.942 270.979H155.607C154.53 270.977 153.498 270.549 152.737 269.788C151.975 269.026 151.547 267.994 151.546 266.917V212.515C151.547 211.438 151.975 210.406 152.737 209.644C153.498 208.883 154.53 208.455 155.607 208.453H374.942C376.019 208.455 377.051 208.883 377.813 209.644C378.574 210.406 379.002 211.438 379.004 212.515V266.917C379.002 267.994 378.574 269.026 377.813 269.788C377.051 270.549 376.019 270.977 374.942 270.979ZM155.607 210.078C154.961 210.079 154.342 210.336 153.885 210.793C153.428 211.25 153.171 211.869 153.17 212.515V266.918C153.171 267.564 153.428 268.184 153.884 268.641C154.341 269.098 154.961 269.354 155.607 269.355H374.942C375.588 269.354 376.208 269.098 376.665 268.641C377.122 268.184 377.379 267.564 377.379 266.918V212.515C377.379 211.868 377.122 211.249 376.665 210.792C376.208 210.335 375.588 210.078 374.942 210.078L155.607 210.078Z" fill="#E6E6E6"/>
<path d="M227.9 226.599C227.169 226.599 226.467 226.889 225.95 227.406C225.433 227.923 225.142 228.625 225.142 229.356C225.142 230.087 225.433 230.789 225.95 231.306C226.467 231.823 227.169 232.113 227.9 232.113H357.899C358.63 232.113 359.332 231.823 359.849 231.306C360.366 230.789 360.657 230.087 360.657 229.356C360.657 228.625 360.366 227.923 359.849 227.406C359.332 226.889 358.63 226.599 357.899 226.599H227.9Z" fill="#E6E6E6"/>
<path d="M227.9 243.143C227.169 243.143 226.467 243.434 225.95 243.951C225.433 244.468 225.142 245.169 225.142 245.901C225.142 246.632 225.433 247.333 225.95 247.85C226.467 248.368 227.169 248.658 227.9 248.658H283.839C284.57 248.658 285.272 248.368 285.789 247.85C286.306 247.333 286.596 246.632 286.596 245.901C286.596 245.169 286.306 244.468 285.789 243.951C285.272 243.434 284.57 243.143 283.839 243.143H227.9Z" fill="#E6E6E6"/>
<path d="M189.843 254.047C198.981 254.047 206.389 246.64 206.389 237.503C206.389 228.366 198.981 220.959 189.843 220.959C180.705 220.959 173.298 228.366 173.298 237.503C173.298 246.64 180.705 254.047 189.843 254.047Z" fill="#E6E6E6"/>
<path d="M187.243 246.698C186.687 246.698 186.146 246.518 185.701 246.185L185.673 246.164L179.866 241.722C179.323 241.306 178.967 240.69 178.877 240.012C178.787 239.333 178.97 238.646 179.387 238.103C179.803 237.559 180.419 237.203 181.097 237.113C181.776 237.023 182.463 237.207 183.007 237.623L186.768 240.507L195.657 228.912C196.073 228.369 196.688 228.014 197.366 227.924C198.044 227.835 198.73 228.018 199.273 228.434L199.218 228.511L199.275 228.434C199.817 228.851 200.172 229.466 200.262 230.144C200.351 230.822 200.168 231.508 199.752 232.051L189.298 245.691C189.056 246.005 188.745 246.259 188.389 246.433C188.033 246.608 187.642 246.698 187.246 246.697L187.243 246.698Z" fill="#E74C3C"/>
</g>
<path d="M0 497H512.321V499.823H0V497Z" fill="#E6E6E6"/>
<defs>
<clipPath id="clip0">
<rect width="595" height="389" fill="white" transform="matrix(-1 0 0 1 595 108)"/>
</clipPath>
</defs>
</svg>
