<svg width="1440" height="564" viewBox="0 0 1440 564" fill="none" xmlns="http://www.w3.org/2000/svg">
<path opacity="0.5" d="M363 245.5C201 239.9 0.166664 135.5 -80 84V511.5L1626 402.5V0C1552 47.3333 1379.2 156.9 1280 216.5C1156 291 565.5 252.5 363 245.5Z" fill="#C4C4C4"/>
<path opacity="0.5" d="M443 284.301C281 279.002 80.1667 180.215 0 131.484V536L1706 432.86V52C1632 96.7885 1459.2 200.465 1360 256.86C1236 327.355 645.5 290.925 443 284.301Z" fill="#C4C4C4"/>
<path opacity="0.5" d="M423.995 318.542C254.683 313.374 44.785 217.036 -39 169.513V564L1744 463.417V92C1666.66 135.678 1486.06 236.784 1382.38 291.781C1252.79 360.528 635.635 325.001 423.995 318.542Z" fill="#C4C4C4"/>
</svg>
