<svg width="34" height="34" viewBox="0 0 34 34" fill="none" xmlns="http://www.w3.org/2000/svg">
<path d="M15.7981 0.464879C15.4599 0.719879 15.1549 0.935035 15.1187 0.940347C15.0824 0.948316 14.9284 0.958941 14.7744 0.969566C14.4544 0.98816 13.4881 1.09175 13.0744 1.1555C10.3418 1.56457 7.94727 2.5341 6.07818 3.98972C5.62524 4.34035 5.04549 4.87425 4.68617 5.27003C3.43004 6.64332 2.02897 8.84535 1.26805 10.6383C-0.0635655 13.7753 -0.344382 16.9602 0.4256 20.1875C1.0597 22.8411 2.34905 25.4549 4.36308 28.1696C4.71938 28.6477 5.36556 29.4578 5.65846 29.7899C7.1954 31.5403 9.23057 32.8313 11.5043 33.4953C12.2894 33.7264 12.8601 33.838 13.7991 33.9522C14.1796 33.9974 15.5625 33.9974 15.943 33.9522C17.5283 33.761 18.7361 33.3386 19.805 32.5949C20.1371 32.3664 20.6867 31.8591 20.9313 31.5536C21.5201 30.8285 21.9006 29.8935 22.0244 28.8735C22.0515 28.661 22.0878 28.3688 22.1029 28.2227C22.1844 27.5533 22.3444 26.8361 22.6011 26.0153C23.0087 24.7005 23.5915 23.3485 24.7903 20.9313C25.4425 19.6191 25.9014 18.6682 26.1913 18.028C27.2602 15.6613 27.7796 13.9108 27.9336 12.1471C27.9789 11.6477 27.9517 10.4338 27.8883 9.98753C27.6256 8.14675 26.916 6.49722 25.675 4.83441C25.3217 4.36425 24.8899 3.84894 24.8567 3.85691C24.8416 3.86222 24.7299 3.77191 24.6091 3.65769C23.7455 2.84488 22.2357 2.0666 20.6293 1.60441C20.1764 1.47425 19.5725 1.33347 19.0531 1.23785C18.8629 1.20332 18.6425 1.15019 18.567 1.11832C18.3888 1.0466 17.9993 0.990816 17.4558 0.953628C17.2142 0.937691 17.0059 0.916441 16.9938 0.905816C16.9847 0.897847 16.9606 0.791597 16.9455 0.672066L16.9153 0.451597L16.6828 0.225816C16.553 0.100972 16.4412 3.48974e-05 16.4292 3.48974e-05C16.4201 3.48974e-05 16.1363 0.209879 15.7981 0.464879ZM17.1901 0.974878C17.1508 0.980191 17.0904 0.980191 17.0542 0.974878C17.0149 0.969566 17.0451 0.964253 17.1206 0.964253C17.1961 0.964253 17.2263 0.969566 17.1901 0.974878ZM18.1473 1.06253C18.4915 1.11832 18.3737 1.11035 17.6943 1.03332C17.3048 0.990816 17.2867 0.985503 17.5434 0.998785C17.7004 1.00675 17.9721 1.03597 18.1473 1.06253Z" fill="url(#paint0_linear)"/>
<defs>
<linearGradient id="paint0_linear" x1="13.9793" y1="33.9861" x2="13.9793" y2="3.43323e-05" gradientUnits="userSpaceOnUse">
<stop stop-color="#E74C3C"/>
<stop offset="1" stop-color="#E67E22"/>
</linearGradient>
</defs>
</svg>
