<svg width="1440" height="839" viewBox="0 0 1440 839" fill="none" xmlns="http://www.w3.org/2000/svg">
<path opacity="0.5" d="M792.5 65.3604C665.7 0.560349 136.667 -3.97298 -112 1.86035V770.86L1547.5 755.36V82.8604C1494.17 72.527 1372.3 50.9604 1311.5 47.3604C1235.5 42.8604 1099 172.36 1061 181.86C1023 191.36 951 146.36 792.5 65.3604Z" fill="#E2E2E2"/>
<path opacity="0.5" d="M829.5 160.589C702.7 102.502 173.667 98.4386 -75 103.668V793L1584.5 779.106V176.276C1531.17 167.013 1409.3 147.681 1348.5 144.454C1272.5 140.42 1136 256.504 1098 265.02C1060 273.536 988 233.198 829.5 160.589Z" fill="#E2E2E2"/>
<path opacity="0.5" d="M829.5 213.271C702.7 155.857 173.667 151.84 -75 157.009V838.36L1584.5 824.627V228.777C1531.17 219.621 1409.3 200.512 1348.5 197.323C1272.5 193.336 1136 308.076 1098 316.493C1060 324.91 988 285.039 829.5 213.271Z" fill="#C9C9C9"/>
</svg>
