<svg width="612" height="612" viewBox="0 0 612 612" fill="none" xmlns="http://www.w3.org/2000/svg">
<rect opacity="0.9" y="87.6403" width="531" height="531" transform="rotate(-9.5 0 87.6403)" fill="#2C3E50"/>
<g clip-path="url(#clip0)">
<path d="M251.708 392.62V487.356H485.476C512.111 487.356 533.781 466.106 533.781 439.988C533.781 413.87 512.111 392.62 485.476 392.62H251.708Z" fill="#F2F2F2"/>
<path d="M245.966 486.628C245.967 487.594 246.345 488.52 247.018 489.204C247.691 489.887 248.603 490.271 249.555 490.271H489.64C502.679 490.271 515.185 485.012 524.405 475.65C533.625 466.289 538.805 453.592 538.805 440.352C538.805 427.113 533.625 414.416 524.405 405.055C515.185 395.693 502.679 390.434 489.64 390.434H249.555C248.603 390.434 247.691 390.818 247.018 391.501C246.345 392.184 245.966 393.111 245.966 394.077C245.966 395.044 246.345 395.971 247.018 396.654C247.691 397.337 248.603 397.721 249.555 397.721H489.64C500.776 397.721 511.456 402.213 519.33 410.208C527.204 418.203 531.628 429.046 531.628 440.352C531.628 451.659 527.204 462.502 519.33 470.497C511.456 478.492 500.776 482.984 489.64 482.984H249.555C248.603 482.984 247.691 483.368 247.018 484.051C246.345 484.735 245.967 485.661 245.966 486.628Z" fill="#E74C3C"/>
<path d="M251.708 414.482H502.918C503.108 414.482 503.291 414.405 503.426 414.269C503.56 414.132 503.636 413.947 503.636 413.753C503.636 413.56 503.56 413.375 503.426 413.238C503.291 413.101 503.108 413.025 502.918 413.025H251.708C251.518 413.025 251.335 413.101 251.201 413.238C251.066 413.375 250.991 413.56 250.991 413.753C250.991 413.947 251.066 414.132 251.201 414.269C251.335 414.405 251.518 414.482 251.708 414.482Z" fill="#CCCCCC"/>
<path d="M251.708 431.972H502.918C503.108 431.972 503.291 431.895 503.426 431.758C503.56 431.622 503.636 431.436 503.636 431.243C503.636 431.05 503.56 430.865 503.426 430.728C503.291 430.591 503.108 430.514 502.918 430.514H251.708C251.518 430.514 251.335 430.591 251.201 430.728C251.066 430.865 250.991 431.05 250.991 431.243C250.991 431.436 251.066 431.622 251.201 431.758C251.335 431.895 251.518 431.972 251.708 431.972Z" fill="#CCCCCC"/>
<path d="M251.708 449.462H502.918C503.108 449.462 503.291 449.385 503.426 449.248C503.56 449.112 503.636 448.926 503.636 448.733C503.636 448.54 503.56 448.354 503.426 448.218C503.291 448.081 503.108 448.004 502.918 448.004H251.708C251.518 448.004 251.335 448.081 251.201 448.218C251.066 448.354 250.991 448.54 250.991 448.733C250.991 448.926 251.066 449.112 251.201 449.248C251.335 449.385 251.518 449.462 251.708 449.462Z" fill="#CCCCCC"/>
<path d="M251.708 466.952H502.918C503.108 466.952 503.291 466.875 503.426 466.738C503.56 466.601 503.636 466.416 503.636 466.223C503.636 466.03 503.56 465.844 503.426 465.708C503.291 465.571 503.108 465.494 502.918 465.494H251.708C251.518 465.494 251.335 465.571 251.201 465.708C251.066 465.844 250.991 466.03 250.991 466.223C250.991 466.416 251.066 466.601 251.201 466.738C251.335 466.875 251.518 466.952 251.708 466.952Z" fill="#CCCCCC"/>
<path d="M71.0403 410.453L129.583 484.222L311.613 335.304C332.353 318.336 336.096 287.985 319.956 267.647C303.816 247.309 273.81 244.567 253.071 261.534L71.0403 410.453Z" fill="#F2F2F2"/>
<path d="M124.661 487.313C125.259 488.065 126.126 488.545 127.072 488.649C128.018 488.752 128.966 488.47 129.707 487.864L316.656 334.921C326.81 326.614 333.298 314.553 334.692 301.389C336.087 288.226 332.274 275.039 324.093 264.73C315.912 254.421 304.032 247.834 291.068 246.418C278.103 245.002 265.115 248.873 254.962 257.18L68.0126 410.122C67.6453 410.422 67.3399 410.793 67.1137 411.213C66.8876 411.633 66.7451 412.094 66.6946 412.57C66.644 413.046 66.6863 413.527 66.819 413.987C66.9518 414.446 67.1723 414.874 67.4681 415.247C67.7639 415.62 68.1292 415.93 68.543 416.159C68.9568 416.388 69.4111 416.533 69.8798 416.584C70.3486 416.635 70.8227 416.592 71.275 416.457C71.7273 416.321 72.1489 416.097 72.5158 415.797L259.465 262.854C263.758 259.339 268.692 256.717 273.983 255.138C279.275 253.559 284.821 253.054 290.305 253.652C295.789 254.25 301.103 255.939 305.943 258.622C310.784 261.306 315.057 264.931 318.517 269.292C321.978 273.652 324.558 278.662 326.111 284.036C327.664 289.409 328.159 295.04 327.568 300.608C326.977 306.175 325.312 311.57 322.667 316.484C320.022 321.398 316.449 325.735 312.153 329.247L125.204 482.189C124.463 482.796 123.99 483.676 123.888 484.637C123.786 485.597 124.064 486.56 124.661 487.313Z" fill="#E67E22"/>
<path d="M84.55 427.477L280.162 267.447C280.235 267.387 280.296 267.313 280.342 267.229C280.387 267.145 280.415 267.053 280.425 266.957C280.435 266.862 280.427 266.766 280.4 266.674C280.374 266.582 280.33 266.497 280.271 266.422C280.211 266.348 280.138 266.286 280.056 266.24C279.973 266.194 279.882 266.165 279.788 266.155C279.695 266.145 279.6 266.153 279.51 266.18C279.419 266.207 279.335 266.252 279.261 266.312L83.6494 426.342C83.5758 426.402 83.5147 426.476 83.4694 426.56C83.4241 426.644 83.3956 426.736 83.3854 426.831C83.3753 426.927 83.3837 427.023 83.4102 427.115C83.4368 427.207 83.4809 427.292 83.5401 427.367C83.5993 427.442 83.6723 427.504 83.7552 427.549C83.838 427.595 83.9288 427.624 84.0226 427.634C84.1164 427.645 84.2113 427.636 84.3018 427.609C84.3923 427.582 84.4766 427.537 84.55 427.477V427.477Z" fill="#CCCCCC"/>
<path d="M95.3578 441.096L290.97 281.066C291.118 280.945 291.212 280.768 291.233 280.576C291.253 280.384 291.197 280.192 291.078 280.042C290.958 279.891 290.785 279.795 290.596 279.774C290.407 279.754 290.217 279.81 290.069 279.931L94.4572 439.961C94.3837 440.021 94.3225 440.095 94.2772 440.179C94.2319 440.263 94.2034 440.355 94.1932 440.45C94.1831 440.545 94.1915 440.642 94.218 440.734C94.2446 440.826 94.2887 440.911 94.3479 440.986C94.4071 441.06 94.4802 441.122 94.563 441.168C94.6458 441.214 94.7367 441.243 94.8305 441.253C94.9243 441.263 95.0191 441.255 95.1096 441.228C95.2001 441.201 95.2844 441.156 95.3578 441.096Z" fill="#CCCCCC"/>
<path d="M106.166 454.715L301.778 294.685C301.926 294.564 302.021 294.387 302.041 294.195C302.061 294.003 302.006 293.811 301.886 293.66C301.767 293.51 301.593 293.413 301.404 293.393C301.215 293.372 301.025 293.429 300.877 293.55L105.265 453.58C105.192 453.64 105.131 453.714 105.085 453.798C105.04 453.882 105.012 453.974 105.002 454.069C104.992 454.164 105 454.26 105.027 454.352C105.053 454.444 105.097 454.53 105.156 454.604C105.216 454.679 105.289 454.741 105.371 454.787C105.454 454.832 105.545 454.861 105.639 454.872C105.732 454.882 105.827 454.873 105.918 454.846C106.008 454.819 106.092 454.775 106.166 454.714V454.715Z" fill="#CCCCCC"/>
<path d="M116.974 468.333L312.586 308.304C312.659 308.244 312.72 308.17 312.765 308.086C312.81 308.002 312.839 307.909 312.849 307.814C312.859 307.719 312.85 307.623 312.824 307.531C312.797 307.439 312.753 307.354 312.694 307.279C312.635 307.205 312.562 307.143 312.479 307.097C312.396 307.051 312.306 307.022 312.212 307.012C312.118 307.002 312.023 307.01 311.933 307.037C311.843 307.064 311.758 307.109 311.685 307.169L116.073 467.199C115.999 467.259 115.938 467.333 115.893 467.417C115.848 467.501 115.819 467.593 115.809 467.688C115.799 467.783 115.807 467.88 115.834 467.972C115.86 468.064 115.904 468.149 115.964 468.224C116.023 468.298 116.096 468.36 116.179 468.406C116.261 468.452 116.352 468.481 116.446 468.491C116.54 468.501 116.635 468.493 116.725 468.466C116.816 468.439 116.9 468.394 116.974 468.333Z" fill="#CCCCCC"/>
<path d="M349.345 382.662L357.55 382.662L361.453 350.527L349.342 350.529L349.345 382.662Z" fill="#FFB8B8"/>
<path d="M363.412 380.281H347.587V390.398H373.375C373.375 389.069 373.118 387.754 372.617 386.526C372.116 385.299 371.382 384.184 370.457 383.244C369.532 382.305 368.434 381.56 367.225 381.051C366.016 380.543 364.72 380.281 363.412 380.281Z" fill="black"/>
<path d="M433.174 382.662L441.379 382.662L445.281 350.527L433.171 350.529L433.174 382.662Z" fill="#FFB8B8"/>
<path d="M447.24 380.281H431.416V390.398H457.204C457.204 389.069 456.946 387.754 456.445 386.526C455.945 385.299 455.211 384.184 454.286 383.244C453.36 382.305 452.262 381.56 451.053 381.051C449.844 380.543 448.549 380.281 447.24 380.281Z" fill="black"/>
<path d="M405.767 144.299V140.655C405.767 134.422 403.328 128.445 398.987 124.037C394.646 119.63 388.759 117.154 382.62 117.154H382.62C376.481 117.154 370.593 119.63 366.252 124.037C361.911 128.445 359.472 134.422 359.472 140.655V144.299C359.472 148.793 361.231 153.102 364.36 156.28C367.49 159.457 371.734 161.242 376.16 161.242H389.079C391.271 161.242 393.441 160.804 395.465 159.953C397.49 159.101 399.33 157.853 400.879 156.28C402.429 154.707 403.658 152.839 404.497 150.783C405.335 148.727 405.767 146.524 405.767 144.299Z" fill="black"/>
<path d="M382.62 162.496C372.884 162.496 364.991 154.483 364.991 144.598C364.991 134.712 372.884 126.699 382.62 126.699C392.356 126.699 400.248 134.712 400.248 144.598C400.248 154.483 392.356 162.496 382.62 162.496Z" fill="#FFB8B8"/>
<path d="M478.507 206.113C477.792 205.427 476.937 204.909 476.003 204.595C475.069 204.28 474.079 204.178 473.102 204.295C472.124 204.411 471.184 204.744 470.347 205.269C469.51 205.794 468.797 206.5 468.258 207.335L453.146 204.433L449.169 213.327L470.567 217.121C472.009 217.948 473.7 218.209 475.32 217.855C476.939 217.5 478.374 216.555 479.353 215.198C480.332 213.841 480.786 212.167 480.63 210.492C480.474 208.818 479.719 207.26 478.507 206.113V206.113Z" fill="#FFB8B8"/>
<path d="M396.363 173.768L396.166 174.072L420.946 190.647L462.761 204.204C463.315 204.385 463.79 204.755 464.106 205.252C464.422 205.748 464.558 206.341 464.492 206.928L463.58 214.905C463.539 215.259 463.427 215.599 463.249 215.905C463.071 216.212 462.832 216.477 462.548 216.684C462.263 216.891 461.939 217.035 461.597 217.108C461.254 217.181 460.9 217.18 460.558 217.105L421.204 208.54C419.3 208.128 417.499 207.323 415.913 206.175L388.074 186.064C387.064 185.331 386.259 184.346 385.736 183.203C385.213 182.06 384.99 180.8 385.089 179.544C385.191 178.286 385.614 177.077 386.316 176.036C387.018 174.994 387.975 174.156 389.092 173.604C390.21 173.052 391.45 172.805 392.69 172.887C393.93 172.969 395.128 173.378 396.166 174.072L396.363 173.768Z" fill="#CCCCCC"/>
<path d="M357.404 373.543C358.034 373.544 358.65 373.358 359.177 373.008C359.705 372.658 360.12 372.16 360.374 371.575L397.99 277.202C398.078 276.998 398.226 276.825 398.413 276.708C398.6 276.591 398.818 276.535 399.038 276.548C399.257 276.56 399.468 276.641 399.641 276.778C399.814 276.916 399.942 277.104 400.006 277.318L430.696 369.193C430.825 369.62 431.039 370.016 431.325 370.357C431.611 370.697 431.963 370.975 432.358 371.172C432.754 371.369 433.185 371.482 433.625 371.504C434.065 371.526 434.505 371.457 434.917 371.3L445.208 367.381C445.767 367.17 446.257 366.807 446.624 366.33C446.991 365.853 447.221 365.283 447.288 364.682C451.917 323.732 411.544 220.369 411.136 219.33L411.023 219.042L374.219 227.308L374.142 227.393C359.459 243.657 347.39 346.237 345.119 366.636C345.034 367.373 345.2 368.117 345.587 368.746C345.975 369.375 346.562 369.85 347.252 370.095L356.336 373.357C356.679 373.48 357.04 373.543 357.404 373.543Z" fill="black"/>
<path d="M389.114 230.635C398.031 230.635 407.972 228.83 411.032 221.38L411.103 221.208L411.008 221.05C408.592 217.026 405.4 210.162 407.116 208.874C410.496 206.336 412.136 202.162 411.99 196.466C411.674 184.103 403.377 173.126 391.344 169.151H391.344C387.985 168.06 384.567 167.166 381.107 166.475C378.584 165.958 375.98 166.015 373.481 166.642C370.983 167.268 368.652 168.449 366.657 170.098C364.636 171.759 363.002 173.853 361.874 176.231C360.745 178.609 360.149 181.211 360.128 183.85C360.002 197.063 362.005 215.465 372.267 228.099C372.748 228.686 373.417 229.081 374.156 229.215C379.093 230.122 384.097 230.597 389.114 230.635Z" fill="#CCCCCC"/>
<path d="M392.431 230.14C391.946 228.373 390.793 226.871 389.224 225.962C387.654 225.053 385.794 224.809 384.049 225.284C383.693 225.385 383.345 225.516 383.01 225.675L371.535 215.072L363.556 220.531L379.964 235.274C380.705 236.63 381.872 237.696 383.278 238.302C384.685 238.907 386.25 239.018 387.726 238.616C388.585 238.378 389.389 237.968 390.092 237.412C390.795 236.855 391.382 236.163 391.819 235.375C392.257 234.587 392.536 233.718 392.641 232.82C392.746 231.921 392.675 231.011 392.431 230.14Z" fill="#FFB8B8"/>
<path d="M373.353 230.275C374.098 230.275 374.819 230.014 375.395 229.535L379.92 225.781C380.297 225.468 380.6 225.072 380.805 224.624C381.011 224.175 381.113 223.685 381.106 223.191C381.098 222.696 380.981 222.21 380.762 221.768C380.543 221.326 380.228 220.94 379.842 220.639L360.864 205.861C360.639 205.685 360.491 205.426 360.453 205.14C360.415 204.854 360.489 204.565 360.66 204.334L372.374 188.611C373.735 186.79 374.418 184.539 374.301 182.257C374.184 179.974 373.276 177.807 371.737 176.139C370.116 174.361 367.896 173.268 365.518 173.074C363.14 172.881 360.777 173.603 358.898 175.096L358.824 175.176L346.592 192.959C345.27 194.012 344.205 195.361 343.48 196.901C342.756 198.441 342.392 200.13 342.417 201.836C342.442 203.543 342.856 205.22 343.625 206.737C344.394 208.255 345.498 209.571 346.851 210.584L371.43 229.632C371.987 230.05 372.661 230.275 373.353 230.275Z" fill="#CCCCCC"/>
<path d="M398.235 139.562V130.682L382.62 123.759L367.731 130.682V139.562C367.731 139.949 367.882 140.32 368.151 140.593C368.42 140.866 368.785 141.02 369.166 141.02H396.799C397.18 141.02 397.545 140.866 397.814 140.593C398.083 140.32 398.235 139.949 398.235 139.562Z" fill="black"/>
<path d="M383.337 118.332C385.632 110.87 380.811 102.319 373.682 99.3661C366.554 96.4128 358.026 98.4772 352.011 103.357C345.996 108.236 342.264 115.544 340.287 123.099C338.31 130.654 337.934 138.532 337.569 146.34C328.811 147.973 322.854 158.52 325.888 167.02C328.921 175.52 340.151 179.743 347.906 175.3C355.662 170.858 357.908 158.915 352.311 151.883C349.662 148.556 348.183 144.427 348.107 140.149C348.031 135.872 349.362 131.691 351.89 128.269C354.419 124.847 357.999 122.379 362.065 121.256C366.131 120.133 370.449 120.42 374.336 122.071C378.653 123.903 384.069 119.141 383.337 118.332Z" fill="black"/>
<path d="M481.745 171.663C492.23 171.593 502.585 169.291 512.14 164.904C512.708 164.647 513.191 164.227 513.529 163.696C513.867 163.165 514.046 162.546 514.043 161.913V135.374C514.042 134.505 513.702 133.671 513.096 133.056C512.491 132.442 511.67 132.096 510.813 132.095H452.676C451.82 132.096 450.999 132.442 450.393 133.056C449.788 133.671 449.447 134.505 449.446 135.374V161.913C449.444 162.546 449.622 163.165 449.96 163.696C450.298 164.227 450.781 164.647 451.35 164.904C460.904 169.291 471.259 171.593 481.745 171.663Z" fill="#E74C3C"/>
<path d="M481.753 150.163C482.184 150.164 482.61 150.076 483.008 149.907L529.11 130.158C529.704 129.904 530.21 129.474 530.562 128.925C530.914 128.376 531.095 127.732 531.083 127.077C531.072 126.422 530.867 125.786 530.495 125.25C530.124 124.714 529.603 124.304 529 124.071L482.897 106.313C482.155 106.026 481.334 106.028 480.592 106.318L435.108 124.076C434.508 124.31 433.99 124.721 433.621 125.256C433.253 125.79 433.049 126.424 433.038 127.076C433.026 127.729 433.206 128.37 433.555 128.918C433.904 129.466 434.406 129.896 434.997 130.152L480.482 149.901C480.884 150.074 481.316 150.164 481.753 150.163Z" fill="#E74C3C"/>
<path d="M508.66 166.71C506.282 166.71 504.354 164.752 504.354 162.338C504.354 159.923 506.282 157.965 508.66 157.965C511.038 157.965 512.966 159.923 512.966 162.338C512.966 164.752 511.038 166.71 508.66 166.71Z" fill="#3F3D56"/>
<path opacity="0.2" d="M434.84 127.349L480.325 147.097C480.68 147.251 481.061 147.331 481.447 147.332C481.833 147.333 482.215 147.255 482.57 147.103L528.672 127.355C529.251 127.113 529.734 126.682 530.045 126.13C530.248 126.488 530.374 126.885 530.414 127.297C530.455 127.708 530.408 128.123 530.278 128.514C530.149 128.906 529.938 129.265 529.661 129.568C529.384 129.87 529.047 130.11 528.672 130.27L482.57 150.018C482.215 150.17 481.833 150.248 481.447 150.247C481.061 150.246 480.68 150.166 480.325 150.012L434.84 130.264C434.467 130.103 434.131 129.862 433.856 129.56C433.581 129.257 433.373 128.898 433.244 128.507C433.116 128.117 433.07 127.703 433.111 127.293C433.152 126.883 433.277 126.487 433.48 126.13C433.789 126.677 434.267 127.106 434.84 127.349Z" fill="black"/>
<path d="M508.298 162.321C508.108 162.321 507.925 162.244 507.791 162.107C507.656 161.97 507.58 161.785 507.58 161.592V137.207L483.908 128.451C483.718 128.454 483.534 128.38 483.398 128.245C483.261 128.111 483.183 127.927 483.18 127.733C483.177 127.54 483.25 127.353 483.383 127.215C483.515 127.076 483.697 126.997 483.887 126.994L507.559 135.75C507.749 135.745 507.939 135.78 508.116 135.852C508.293 135.924 508.453 136.032 508.588 136.169C508.724 136.304 508.832 136.466 508.905 136.644C508.979 136.822 509.016 137.014 509.016 137.207V161.592C509.016 161.785 508.94 161.97 508.806 162.107C508.671 162.244 508.488 162.321 508.298 162.321Z" fill="#3F3D56"/>
</g>
<defs>
<clipPath id="clip0">
<rect width="534" height="393" fill="white" transform="matrix(-1 0 0 1 592 98)"/>
</clipPath>
</defs>
</svg>
